# xmcd
#
# Track frame offsets:
#	150
#	20102
#	40276
#	54466
#	74435
#
# Disc length: 1177 seconds
#
# Revision: 1
# Processed by: cddbd v1.4PL0 Copyright (c) Steve Scherf et al.
# Submitted via: EasyCDDAExtractor 5.0.6
#
DISCID=44049705
DTITLE=Franxon Natra
DYEAR=1995
DGENRE=Funk
TTITLE0=Girl
TTITLE1=Ou Ou Ou (Feel The Music)
TTITLE2=Serious
TTITLE3=Forever
TTITLE4=Ba Ba Dap
EXTD=
EXTT0=
EXTT1=
EXTT2=
EXTT3=
EXTT4=
PLAYORDER=
